<?xml version="1.0" encoding="UTF-8"?>
<svg id="Layer_2" xmlns="http://www.w3.org/2000/svg" version="1.1" viewBox="0 0 1280 1280">
  <defs>
    <style>
      .st0 {
        fill: #231f20;
      }
    </style>
  </defs>
  <polygon class="st0" points="657.17 819.86 546.37 819.86 622.83 460.14 733.63 460.14 657.17 819.86"/>
  <polygon class="st0" points="1218.53 409.72 1068.98 409.72 1074.08 385.72 1223.64 385.72 1218.53 409.72"/>
  <polygon class="st0" points="310.56 409.72 161 409.72 166.1 385.72 315.66 385.72 310.56 409.72"/>
  <polygon class="st0" points="1168.02 652 109.5 652 114.6 628 1173.12 628 1168.02 652"/>
  <polygon class="st0" points="1114.72 894.28 965.16 894.28 970.26 870.28 1119.82 870.28 1114.72 894.28"/>
  <polygon class="st0" points="206.74 894.28 57.18 894.28 62.29 870.28 211.84 870.28 206.74 894.28"/>
  <polygon class="st0" points="581.69 143.09 486.91 589.02 262.45 589.02 357.23 143.09 581.69 143.09"/>
  <polygon class="st0" points="240.75 691.09 465.21 691.09 370.45 1136.91 145.99 1136.91 240.75 691.09"/>
  <polygon class="st0" points="1135.65 143.09 1040.87 589.02 816.41 589.02 911.19 143.09 1135.65 143.09"/>
  <polygon class="st0" points="794.71 691.09 1019.17 691.09 924.41 1136.91 699.95 1136.91 794.71 691.09"/>
</svg>
